<svg width="100" height="14" viewBox="0 0 100 14" fill="none" xmlns="http://www.w3.org/2000/svg">
<path d="M94.6221 14C93.496 14 92.5322 13.7775 91.7304 13.3324C90.9287 12.8828 90.3139 12.2579 89.886 11.4576C89.4581 10.6529 89.2441 9.71998 89.2441 8.65897C89.2441 7.59795 89.4581 6.66732 89.886 5.86706C90.3139 5.0623 90.9287 4.43738 91.7304 3.9923C92.5322 3.54271 93.496 3.31792 94.6221 3.31792C95.7481 3.31792 96.712 3.54271 97.5137 3.9923C98.3155 4.43738 98.9303 5.0623 99.3582 5.86706C99.786 6.66732 100 7.59795 100 8.65897C100 9.71998 99.786 10.6529 99.3582 11.4576C98.9303 12.2579 98.3155 12.8828 97.5137 13.3324C96.712 13.7775 95.7481 14 94.6221 14ZM94.6491 11.2486C94.9644 11.2486 95.2369 11.1429 95.4666 10.9316C95.6963 10.7203 95.8742 10.4191 96.0003 10.0279C96.1264 9.63681 96.1895 9.17149 96.1895 8.63199C96.1895 8.088 96.1264 7.62268 96.0003 7.23604C95.8742 6.8449 95.6963 6.54368 95.4666 6.33238C95.2369 6.12107 94.9644 6.01542 94.6491 6.01542C94.3158 6.01542 94.0298 6.12107 93.7911 6.33238C93.5523 6.54368 93.3699 6.8449 93.2438 7.23604C93.1177 7.62268 93.0546 8.088 93.0546 8.63199C93.0546 9.17149 93.1177 9.63681 93.2438 10.0279C93.3699 10.4191 93.5523 10.7203 93.7911 10.9316C94.0298 11.1429 94.3158 11.2486 94.6491 11.2486Z" fill="white"/>
<path d="M87.7223 0V13.8112H83.9929V0H87.7223Z" fill="white"/>
<path d="M75.644 13.973C74.9818 13.973 74.3963 13.8651 73.8873 13.6493C73.3829 13.429 72.9865 13.0964 72.6983 12.6513C72.41 12.2062 72.2659 11.6397 72.2659 10.9518C72.2659 10.3854 72.3627 9.90207 72.5564 9.50194C72.7501 9.09731 73.0203 8.76687 73.3671 8.51061C73.7139 8.25434 74.1171 8.05877 74.5765 7.9239C75.0404 7.78902 75.5404 7.70136 76.0763 7.66089C76.6574 7.61594 77.1236 7.56199 77.4749 7.49904C77.8307 7.43161 78.0874 7.33944 78.2451 7.22255C78.4027 7.10116 78.4815 6.94156 78.4815 6.74374V6.71677C78.4815 6.44702 78.378 6.24021 78.1708 6.09635C77.9636 5.95248 77.6978 5.88054 77.3735 5.88054C77.0177 5.88054 76.7272 5.95922 76.502 6.11658C76.2813 6.26943 76.1484 6.50547 76.1034 6.82467H72.6712C72.7163 6.19525 72.9167 5.61529 73.2725 5.08478C73.6329 4.54978 74.1576 4.12268 74.8467 3.80347C75.5359 3.47977 76.3961 3.31792 77.4276 3.31792C78.1708 3.31792 78.8374 3.40559 79.4274 3.58093C80.0175 3.75177 80.5197 3.9923 80.934 4.30251C81.3484 4.60822 81.6637 4.96789 81.8799 5.38151C82.1006 5.79063 82.211 6.23572 82.211 6.71677V13.8112H78.7248V12.3545H78.6437C78.4365 12.7412 78.1843 13.0536 77.887 13.2919C77.5942 13.5302 77.2587 13.7033 76.8803 13.8112C76.5065 13.9191 76.0944 13.973 75.644 13.973ZM76.8601 11.6262C77.1438 11.6262 77.4096 11.5678 77.6573 11.4509C77.9095 11.334 78.1145 11.1654 78.2721 10.9451C78.4298 10.7248 78.5086 10.4573 78.5086 10.1426V9.27939C78.4095 9.31986 78.3036 9.35807 78.191 9.39404C78.0829 9.43 77.9658 9.46372 77.8397 9.49519C77.7181 9.52666 77.5875 9.55589 77.4479 9.58286C77.3127 9.60984 77.1708 9.63456 77.0222 9.65704C76.7339 9.702 76.4975 9.77618 76.3128 9.87959C76.1326 9.97849 75.9975 10.1021 75.9074 10.2505C75.8219 10.3944 75.7791 10.5562 75.7791 10.736C75.7791 11.0238 75.8804 11.2441 76.0831 11.3969C76.2858 11.5498 76.5448 11.6262 76.8601 11.6262Z" fill="white"/>
<path d="M64.1821 7.98459V13.8112H60.4527V0H64.047V5.42197H64.1551C64.3893 4.76108 64.7789 4.24631 65.3239 3.87765C65.8689 3.5045 66.5242 3.31792 67.2899 3.31792C68.0241 3.31792 68.6614 3.48427 69.2019 3.81696C69.7469 4.14965 70.1681 4.60823 70.4653 5.19268C70.7671 5.77714 70.9157 6.44702 70.9112 7.20232V13.8112H67.1818V7.98459C67.1863 7.47207 67.058 7.06969 66.7967 6.77746C66.54 6.48523 66.1729 6.33912 65.6955 6.33912C65.3937 6.33912 65.1279 6.40656 64.8982 6.54143C64.673 6.67181 64.4974 6.86064 64.3713 7.10791C64.2496 7.35068 64.1866 7.64291 64.1821 7.98459Z" fill="white"/>
<path d="M51.9466 13.9461C51.2079 13.9461 50.5278 13.7527 49.9062 13.3661C49.2892 12.9795 48.7937 12.3928 48.4199 11.606C48.0506 10.8192 47.8659 9.82788 47.8659 8.63199C47.8659 7.38215 48.0596 6.3661 48.4469 5.58382C48.8388 4.80155 49.3432 4.22833 49.9603 3.86417C50.5819 3.5 51.235 3.31792 51.9196 3.31792C52.4331 3.31792 52.8835 3.40784 53.2708 3.58767C53.6582 3.76301 53.9825 3.99904 54.2437 4.29576C54.505 4.58799 54.7031 4.90945 54.8383 5.26012H54.8923V0H58.6217V13.8112H54.9193V12.1118H54.8383C54.6941 12.4624 54.4869 12.7771 54.2167 13.0559C53.951 13.3301 53.6267 13.5482 53.2438 13.71C52.8655 13.8674 52.4331 13.9461 51.9466 13.9461ZM53.3249 11.0867C53.6672 11.0867 53.96 10.9878 54.2032 10.79C54.4509 10.5877 54.6401 10.3044 54.7707 9.94028C54.9058 9.57162 54.9734 9.13553 54.9734 8.63199C54.9734 8.11947 54.9058 7.68112 54.7707 7.31696C54.6401 6.9483 54.4509 6.66732 54.2032 6.47399C53.96 6.27618 53.6672 6.17727 53.3249 6.17727C52.9826 6.17727 52.6898 6.27618 52.4466 6.47399C52.2079 6.66732 52.0232 6.9483 51.8926 7.31696C51.7665 7.68112 51.7034 8.11947 51.7034 8.63199C51.7034 9.14452 51.7665 9.58511 51.8926 9.95377C52.0232 10.3179 52.2079 10.5989 52.4466 10.7967C52.6898 10.9901 52.9826 11.0867 53.3249 11.0867Z" fill="white"/>
<path d="M39.62 7.98459V13.8112H35.8905V3.4528H39.4308V5.42197H39.5389C39.7641 4.76558 40.1605 4.25081 40.728 3.87765C41.3 3.5045 41.9666 3.31792 42.7278 3.31792C43.462 3.31792 44.0993 3.48652 44.6398 3.8237C45.1848 4.15639 45.6059 4.61497 45.9032 5.19943C46.205 5.78389 46.3536 6.45152 46.3491 7.20232V13.8112H42.6197V7.98459C42.6242 7.47207 42.4936 7.06969 42.2279 6.77746C41.9666 6.48523 41.6018 6.33912 41.1333 6.33912C40.8271 6.33912 40.5591 6.40656 40.3294 6.54143C40.1042 6.67181 39.9307 6.86064 39.8091 7.10791C39.6875 7.35068 39.6245 7.64291 39.62 7.98459Z" fill="white"/>
<path d="M30.2643 9.27939V3.4528H33.9937V13.8112H30.4535V11.842H30.3454C30.1202 12.5029 29.7261 13.0199 29.1631 13.3931C28.6001 13.7617 27.9312 13.9461 27.1565 13.9461C26.4313 13.9461 25.7962 13.7797 25.2512 13.447C24.7107 13.1143 24.2896 12.6558 23.9878 12.0713C23.6906 11.4868 23.5397 10.817 23.5352 10.0617V3.4528H27.2646V9.27939C27.2691 9.79192 27.3997 10.1943 27.6564 10.4865C27.9177 10.7788 28.2825 10.9249 28.7509 10.9249C29.0617 10.9249 29.3297 10.8597 29.5549 10.7293C29.7846 10.5944 29.9603 10.4056 30.0819 10.1628C30.208 9.91555 30.2688 9.62108 30.2643 9.27939Z" fill="white"/>
<path d="M16.6439 14C15.5178 14 14.554 13.7775 13.7522 13.3324C12.9505 12.8828 12.3357 12.2579 11.9078 11.4576C11.4799 10.6529 11.2659 9.71998 11.2659 8.65897C11.2659 7.59795 11.4799 6.66732 11.9078 5.86706C12.3357 5.0623 12.9505 4.43738 13.7522 3.9923C14.554 3.54271 15.5178 3.31792 16.6439 3.31792C17.7699 3.31792 18.7338 3.54271 19.5355 3.9923C20.3372 4.43738 20.9521 5.0623 21.3799 5.86706C21.8078 6.66732 22.0218 7.59795 22.0218 8.65897C22.0218 9.71998 21.8078 10.6529 21.3799 11.4576C20.9521 12.2579 20.3372 12.8828 19.5355 13.3324C18.7338 13.7775 17.7699 14 16.6439 14ZM16.6709 11.2486C16.9862 11.2486 17.2587 11.1429 17.4884 10.9316C17.7181 10.7203 17.896 10.4191 18.0221 10.0279C18.1482 9.63681 18.2113 9.17149 18.2113 8.63199C18.2113 8.088 18.1482 7.62268 18.0221 7.23604C17.896 6.8449 17.7181 6.54368 17.4884 6.33238C17.2587 6.12107 16.9862 6.01542 16.6709 6.01542C16.3376 6.01542 16.0516 6.12107 15.8129 6.33238C15.5741 6.54368 15.3917 6.8449 15.2656 7.23604C15.1395 7.62268 15.0764 8.088 15.0764 8.63199C15.0764 9.17149 15.1395 9.63681 15.2656 10.0279C15.3917 10.4191 15.5741 10.7203 15.8129 10.9316C16.0516 11.1429 16.3376 11.2486 16.6709 11.2486Z" fill="white"/>
<path d="M9.94511 6.82467H6.51296C6.49495 6.61337 6.42063 6.43128 6.29001 6.27843C6.15939 6.12557 5.99049 6.00868 5.7833 5.92775C5.58061 5.84233 5.3554 5.79962 5.10768 5.79962C4.78788 5.79962 4.51313 5.85807 4.28342 5.97496C4.05371 6.09185 3.94111 6.25819 3.94561 6.47399C3.94111 6.62685 4.00642 6.76847 4.14154 6.89885C4.28117 7.02923 4.54917 7.13039 4.94553 7.20232L7.05346 7.57997C8.11643 7.77329 8.90691 8.09924 9.42488 8.55781C9.94736 9.01189 10.2108 9.62107 10.2154 10.3854C10.2108 11.1227 9.99015 11.7633 9.55325 12.3073C9.12085 12.8468 8.52856 13.2649 7.77637 13.5617C7.02869 13.8539 6.17515 14 5.21578 14C3.63032 14 2.38944 13.6763 1.49312 13.0289C0.601301 12.3815 0.103595 11.5273 0 10.4663H3.70239C3.75194 10.7945 3.91408 11.0485 4.18884 11.2283C4.46809 11.4037 4.81941 11.4913 5.2428 11.4913C5.58511 11.4913 5.86662 11.4329 6.08732 11.316C6.31253 11.1991 6.42738 11.0328 6.43189 10.817C6.42738 10.6192 6.32829 10.4618 6.13462 10.3449C5.94544 10.228 5.64817 10.1336 5.2428 10.0617L3.40512 9.73797C2.34665 9.55364 1.55392 9.20296 1.02694 8.68594C0.499958 8.16892 0.238719 7.50354 0.243223 6.68979C0.238719 5.97046 0.427892 5.36128 0.810742 4.86224C1.1981 4.35871 1.74985 3.97656 2.46601 3.7158C3.18667 3.45055 4.0402 3.31792 5.0266 3.31792C6.52648 3.31792 7.70881 3.62813 8.5736 4.24856C9.44289 4.86898 9.90006 5.72769 9.94511 6.82467Z" fill="white"/>
<path d="M21.6142 0.146533V2.64458H11.4618V0.146533H21.6142Z" fill="#F74806"/>
</svg>
