<svg width="80" height="80" viewBox="0 0 80 80" fill="none" xmlns="http://www.w3.org/2000/svg">
<path d="M14.2682 64H11.0073C10.4856 64 10.0291 63.5435 10.0291 63.0217C10.0291 62.5 10.4856 62.0435 11.0073 62.0435H14.2682C14.7899 62.0435 15.2464 62.5 15.2464 63.0217C15.2464 63.5435 14.7899 64 14.2682 64ZM20.7899 64H17.5291C17.0073 64 16.5508 63.5435 16.5508 63.0217C16.5508 62.5 17.0073 62.0435 17.5291 62.0435H20.7899C21.3117 62.0435 21.7682 62.5 21.7682 63.0217C21.7682 63.5435 21.3117 64 20.7899 64ZM27.3117 64H24.0508C23.5291 64 23.0725 63.5435 23.0725 63.0217C23.0725 62.5 23.5291 62.0435 24.0508 62.0435H27.3117C27.8334 62.0435 28.2899 62.5 28.2899 63.0217C28.2899 63.5435 27.8334 64 27.3117 64ZM33.8334 64H30.5725C30.0508 64 29.5943 63.5435 29.5943 63.0217C29.5943 62.5 30.0508 62.0435 30.5725 62.0435H33.8334C34.3551 62.0435 34.8117 62.5 34.8117 63.0217C34.8117 63.5435 34.3551 64 33.8334 64ZM40.3551 64H37.0943C36.5725 64 36.116 63.5435 36.116 63.0217C36.116 62.5 36.5725 62.0435 37.0943 62.0435H40.3551C40.8769 62.0435 41.3334 62.5 41.3334 63.0217C41.3334 63.5435 40.8769 64 40.3551 64ZM46.8769 64H43.616C43.0943 64 42.6377 63.5435 42.6377 63.0217C42.6377 62.5 43.0943 62.0435 43.616 62.0435H46.8769C47.3986 62.0435 47.8551 62.5 47.8551 63.0217C47.8551 63.5435 47.3986 64 46.8769 64ZM53.3986 64H50.1377C49.616 64 49.1595 63.5435 49.1595 63.0217C49.1595 62.5 49.616 62.0435 50.1377 62.0435H53.3986C53.9204 62.0435 54.3769 62.5 54.3769 63.0217C54.3769 63.5435 53.9204 64 53.3986 64ZM59.9204 64H56.6595C56.1377 64 55.6812 63.5435 55.6812 63.0217C55.6812 62.5 56.1377 62.0435 56.6595 62.0435H59.9204C60.4421 62.0435 60.8986 62.5 60.8986 63.0217C60.8986 63.5435 60.4421 64 59.9204 64ZM14.2682 60.087H11.0073C10.4856 60.087 10.0291 59.6304 10.0291 59.1087C10.0291 58.587 10.4856 58.1304 11.0073 58.1304H14.2682C14.7899 58.1304 15.2464 58.587 15.2464 59.1087C15.2464 59.6304 14.7899 60.087 14.2682 60.087ZM20.7899 60.087H17.5291C17.0073 60.087 16.5508 59.6304 16.5508 59.1087C16.5508 58.587 17.0073 58.1304 17.5291 58.1304H20.7899C21.3117 58.1304 21.7682 58.587 21.7682 59.1087C21.7682 59.6304 21.3117 60.087 20.7899 60.087ZM27.3117 60.087H24.0508C23.5291 60.087 23.0725 59.6304 23.0725 59.1087C23.0725 58.587 23.5291 58.1304 24.0508 58.1304H27.3117C27.8334 58.1304 28.2899 58.587 28.2899 59.1087C28.2899 59.6304 27.8334 60.087 27.3117 60.087ZM33.8334 60.087H30.5725C30.0508 60.087 29.5943 59.6304 29.5943 59.1087C29.5943 58.587 30.0508 58.1304 30.5725 58.1304H33.8334C34.3551 58.1304 34.8117 58.587 34.8117 59.1087C34.8117 59.6304 34.3551 60.087 33.8334 60.087ZM40.3551 60.087H37.0943C36.5725 60.087 36.116 59.6304 36.116 59.1087C36.116 58.587 36.5725 58.1304 37.0943 58.1304H40.3551C40.8769 58.1304 41.3334 58.587 41.3334 59.1087C41.3334 59.6304 40.8769 60.087 40.3551 60.087ZM46.8769 60.087H43.616C43.0943 60.087 42.6377 59.6304 42.6377 59.1087C42.6377 58.587 43.0943 58.1304 43.616 58.1304H46.8769C47.3986 58.1304 47.8551 58.587 47.8551 59.1087C47.8551 59.6304 47.3986 60.087 46.8769 60.087ZM53.3986 60.087H50.1377C49.616 60.087 49.1595 59.6304 49.1595 59.1087C49.1595 58.587 49.616 58.1304 50.1377 58.1304H53.3986C53.9204 58.1304 54.3769 58.587 54.3769 59.1087C54.3769 59.6304 53.9204 60.087 53.3986 60.087ZM59.9204 60.087H56.6595C56.1377 60.087 55.6812 59.6304 55.6812 59.1087C55.6812 58.587 56.1377 58.1304 56.6595 58.1304H59.9204C60.4421 58.1304 60.8986 58.587 60.8986 59.1087C60.8986 59.6304 60.4421 60.087 59.9204 60.087ZM14.2682 56.1739H11.0073C10.4856 56.1739 10.0291 55.7174 10.0291 55.1957C10.0291 54.6739 10.4856 54.2174 11.0073 54.2174H14.2682C14.7899 54.2174 15.2464 54.6739 15.2464 55.1957C15.2464 55.7174 14.7899 56.1739 14.2682 56.1739ZM20.7899 56.1739H17.5291C17.0073 56.1739 16.5508 55.7174 16.5508 55.1957C16.5508 54.6739 17.0073 54.2174 17.5291 54.2174H20.7899C21.3117 54.2174 21.7682 54.6739 21.7682 55.1957C21.7682 55.7174 21.3117 56.1739 20.7899 56.1739ZM27.3117 56.1739H24.0508C23.5291 56.1739 23.0725 55.7174 23.0725 55.1957C23.0725 54.6739 23.5291 54.2174 24.0508 54.2174H27.3117C27.8334 54.2174 28.2899 54.6739 28.2899 55.1957C28.2899 55.7174 27.8334 56.1739 27.3117 56.1739ZM33.8334 56.1739H30.5725C30.0508 56.1739 29.5943 55.7174 29.5943 55.1957C29.5943 54.6739 30.0508 54.2174 30.5725 54.2174H33.8334C34.3551 54.2174 34.8117 54.6739 34.8117 55.1957C34.8117 55.7174 34.3551 56.1739 33.8334 56.1739ZM66.4421 64H63.1812C62.6595 64 62.203 63.5435 62.203 63.0217C62.203 62.5 62.6595 62.0435 63.1812 62.0435H66.4421C66.9638 62.0435 67.4204 62.5 67.4204 63.0217C67.4204 63.5435 66.9638 64 66.4421 64ZM66.4421 60.087H63.1812C62.6595 60.087 62.203 59.6304 62.203 59.1087C62.203 58.587 62.6595 58.1304 63.1812 58.1304H66.4421C66.9638 58.1304 67.4204 58.587 67.4204 59.1087C67.4204 59.6304 66.9638 60.087 66.4421 60.087ZM66.4421 56.1739H63.1812C62.6595 56.1739 62.203 55.7174 62.203 55.1957C62.203 54.6739 62.6595 54.2174 63.1812 54.2174H66.4421C66.9638 54.2174 67.4204 54.6739 67.4204 55.1957C67.4204 55.7174 66.9638 56.1739 66.4421 56.1739ZM40.3551 56.1739H37.0943C36.5725 56.1739 36.116 55.7174 36.116 55.1957C36.116 54.6739 36.5725 54.2174 37.0943 54.2174H40.3551C40.8769 54.2174 41.3334 54.6739 41.3334 55.1957C41.3334 55.7174 40.8769 56.1739 40.3551 56.1739ZM46.8769 56.1739H43.616C43.0943 56.1739 42.6377 55.7174 42.6377 55.1957C42.6377 54.6739 43.0943 54.2174 43.616 54.2174H46.8769C47.3986 54.2174 47.8551 54.6739 47.8551 55.1957C47.8551 55.7174 47.3986 56.1739 46.8769 56.1739ZM53.3986 56.1739H50.1377C49.616 56.1739 49.1595 55.7174 49.1595 55.1957C49.1595 54.6739 49.616 54.2174 50.1377 54.2174H53.3986C53.9204 54.2174 54.3769 54.6739 54.3769 55.1957C54.3769 55.7174 53.9204 56.1739 53.3986 56.1739ZM59.9204 56.1739H56.6595C56.1377 56.1739 55.6812 55.7174 55.6812 55.1957C55.6812 54.6739 56.1377 54.2174 56.6595 54.2174H59.9204C60.4421 54.2174 60.8986 54.6739 60.8986 55.1957C60.8986 55.7174 60.4421 56.1739 59.9204 56.1739ZM14.2682 52.2609H11.0073C10.4856 52.2609 10.0291 51.8043 10.0291 51.2826C10.0291 50.7609 10.4856 50.3043 11.0073 50.3043H14.2682C14.7899 50.3043 15.2464 50.7609 15.2464 51.2826C15.2464 51.8043 14.7899 52.2609 14.2682 52.2609ZM20.7899 52.2609H17.5291C17.0073 52.2609 16.5508 51.8043 16.5508 51.2826C16.5508 50.7609 17.0073 50.3043 17.5291 50.3043H20.7899C21.3117 50.3043 21.7682 50.7609 21.7682 51.2826C21.7682 51.8043 21.3117 52.2609 20.7899 52.2609ZM27.3117 52.2609H24.0508C23.5291 52.2609 23.0725 51.8043 23.0725 51.2826C23.0725 50.7609 23.5291 50.3043 24.0508 50.3043H27.3117C27.8334 50.3043 28.2899 50.7609 28.2899 51.2826C28.2899 51.8043 27.8334 52.2609 27.3117 52.2609ZM40.3551 52.2609H37.0943C36.5725 52.2609 36.116 51.8043 36.116 51.2826C36.116 50.7609 36.5725 50.3043 37.0943 50.3043H40.3551C40.8769 50.3043 41.3334 50.7609 41.3334 51.2826C41.3334 51.8043 40.8769 52.2609 40.3551 52.2609ZM46.8769 52.2609H43.616C43.0943 52.2609 42.6377 51.8043 42.6377 51.2826C42.6377 50.7609 43.0943 50.3043 43.616 50.3043H46.8769C47.3986 50.3043 47.8551 50.7609 47.8551 51.2826C47.8551 51.8043 47.3986 52.2609 46.8769 52.2609ZM53.3986 52.2609H50.1377C49.616 52.2609 49.1595 51.8043 49.1595 51.2826C49.1595 50.7609 49.616 50.3043 50.1377 50.3043H53.3986C53.9204 50.3043 54.3769 50.7609 54.3769 51.2826C54.3769 51.8043 53.9204 52.2609 53.3986 52.2609ZM59.9204 52.2609H56.6595C56.1377 52.2609 55.6812 51.8043 55.6812 51.2826C55.6812 50.7609 56.1377 50.3043 56.6595 50.3043H59.9204C60.4421 50.3043 60.8986 50.7609 60.8986 51.2826C60.8986 51.8043 60.4421 52.2609 59.9204 52.2609ZM14.2682 48.3478H11.0073C10.4856 48.3478 10.0291 47.8913 10.0291 47.3696C10.0291 46.8478 10.4856 46.3913 11.0073 46.3913H14.2682C14.7899 46.3913 15.2464 46.8478 15.2464 47.3696C15.2464 47.8913 14.7899 48.3478 14.2682 48.3478ZM27.3117 48.3478H24.0508C23.5291 48.3478 23.0725 47.8913 23.0725 47.3696C23.0725 46.8478 23.5291 46.3913 24.0508 46.3913H27.3117C27.8334 46.3913 28.2899 46.8478 28.2899 47.3696C28.2899 47.8913 27.8334 48.3478 27.3117 48.3478ZM40.3551 48.3478H37.0943C36.5725 48.3478 36.116 47.8913 36.116 47.3696C36.116 46.8478 36.5725 46.3913 37.0943 46.3913H40.3551C40.8769 46.3913 41.3334 46.8478 41.3334 47.3696C41.3334 47.8913 40.8769 48.3478 40.3551 48.3478ZM46.8769 48.3478H43.616C43.0943 48.3478 42.6377 47.8913 42.6377 47.3696C42.6377 46.8478 43.0943 46.3913 43.616 46.3913H46.8769C47.3986 46.3913 47.8551 46.8478 47.8551 47.3696C47.8551 47.8913 47.3986 48.3478 46.8769 48.3478ZM53.3986 48.3478H50.1377C49.616 48.3478 49.1595 47.8913 49.1595 47.3696C49.1595 46.8478 49.616 46.3913 50.1377 46.3913H53.3986C53.9204 46.3913 54.3769 46.8478 54.3769 47.3696C54.3769 47.8913 53.9204 48.3478 53.3986 48.3478ZM59.9204 48.3478H56.6595C56.1377 48.3478 55.6812 47.8913 55.6812 47.3696C55.6812 46.8478 56.1377 46.3913 56.6595 46.3913H59.9204C60.4421 46.3913 60.8986 46.8478 60.8986 47.3696C60.8986 47.8913 60.4421 48.3478 59.9204 48.3478ZM27.3117 44.4348H24.0508C23.5291 44.4348 23.0725 43.9783 23.0725 43.4565C23.0725 42.9348 23.5291 42.4783 24.0508 42.4783H27.3117C27.8334 42.4783 28.2899 42.9348 28.2899 43.4565C28.2899 43.9783 27.8334 44.4348 27.3117 44.4348ZM40.3551 44.4348H37.0943C36.5725 44.4348 36.116 43.9783 36.116 43.4565C36.116 42.9348 36.5725 42.4783 37.0943 42.4783H40.3551C40.8769 42.4783 41.3334 42.9348 41.3334 43.4565C41.3334 43.9783 40.8769 44.4348 40.3551 44.4348ZM46.8769 44.4348H43.616C43.0943 44.4348 42.6377 43.9783 42.6377 43.4565C42.6377 42.9348 43.0943 42.4783 43.616 42.4783H46.8769C47.3986 42.4783 47.8551 42.9348 47.8551 43.4565C47.8551 43.9783 47.3986 44.4348 46.8769 44.4348ZM53.3986 44.4348H50.1377C49.616 44.4348 49.1595 43.9783 49.1595 43.4565C49.1595 42.9348 49.616 42.4783 50.1377 42.4783H53.3986C53.9204 42.4783 54.3769 42.9348 54.3769 43.4565C54.3769 43.9783 53.9204 44.4348 53.3986 44.4348ZM59.9204 44.4348H56.6595C56.1377 44.4348 55.6812 43.9783 55.6812 43.4565C55.6812 42.9348 56.1377 42.4783 56.6595 42.4783H59.9204C60.4421 42.4783 60.8986 42.9348 60.8986 43.4565C60.8986 43.9783 60.4421 44.4348 59.9204 44.4348ZM27.3117 40.5217H24.0508C23.5291 40.5217 23.0725 40.0652 23.0725 39.5435C23.0725 39.0217 23.5291 38.5652 24.0508 38.5652H27.3117C27.8334 38.5652 28.2899 39.0217 28.2899 39.5435C28.2899 40.0652 27.8334 40.5217 27.3117 40.5217ZM40.3551 40.5217H37.0943C36.5725 40.5217 36.116 40.0652 36.116 39.5435C36.116 39.0217 36.5725 38.5652 37.0943 38.5652H40.3551C40.8769 38.5652 41.3334 39.0217 41.3334 39.5435C41.3334 40.0652 40.8769 40.5217 40.3551 40.5217ZM46.8769 40.5217H43.616C43.0943 40.5217 42.6377 40.0652 42.6377 39.5435C42.6377 39.0217 43.0943 38.5652 43.616 38.5652H46.8769C47.3986 38.5652 47.8551 39.0217 47.8551 39.5435C47.8551 40.0652 47.3986 40.5217 46.8769 40.5217ZM53.3986 40.5217H50.1377C49.616 40.5217 49.1595 40.0652 49.1595 39.5435C49.1595 39.0217 49.616 38.5652 50.1377 38.5652H53.3986C53.9204 38.5652 54.3769 39.0217 54.3769 39.5435C54.3769 40.0652 53.9204 40.5217 53.3986 40.5217ZM40.3551 36.6087H37.0943C36.5725 36.6087 36.116 36.1522 36.116 35.6304C36.116 35.1087 36.5725 34.6522 37.0943 34.6522H40.3551C40.8769 34.6522 41.3334 35.1087 41.3334 35.6304C41.3334 36.1522 40.8769 36.6087 40.3551 36.6087ZM53.3986 36.6087H50.1377C49.616 36.6087 49.1595 36.1522 49.1595 35.6304C49.1595 35.1087 49.616 34.6522 50.1377 34.6522H53.3986C53.9204 34.6522 54.3769 35.1087 54.3769 35.6304C54.3769 36.1522 53.9204 36.6087 53.3986 36.6087ZM40.3551 32.6957H37.0943C36.5725 32.6957 36.116 32.2391 36.116 31.7174C36.116 31.1957 36.5725 30.7391 37.0943 30.7391H40.3551C40.8769 30.7391 41.3334 31.1957 41.3334 31.7174C41.3334 32.2391 40.8769 32.6957 40.3551 32.6957ZM53.3986 32.6957H50.1377C49.616 32.6957 49.1595 32.2391 49.1595 31.7174C49.1595 31.1957 49.616 30.7391 50.1377 30.7391H53.3986C53.9204 30.7391 54.3769 31.1957 54.3769 31.7174C54.3769 32.2391 53.9204 32.6957 53.3986 32.6957ZM40.3551 28.7826H37.0943C36.5725 28.7826 36.116 28.3261 36.116 27.8043C36.116 27.2826 36.5725 26.8261 37.0943 26.8261H40.3551C40.8769 26.8261 41.3334 27.2826 41.3334 27.8043C41.3334 28.3261 40.8769 28.7826 40.3551 28.7826ZM40.3551 24.8696H37.0943C36.5725 24.8696 36.116 24.413 36.116 23.8913C36.116 23.3696 36.5725 22.913 37.0943 22.913H40.3551C40.8769 22.913 41.3334 23.3696 41.3334 23.8913C41.3334 24.413 40.8769 24.8696 40.3551 24.8696ZM40.3551 20.9565H37.0943C36.5725 20.9565 36.116 20.5 36.116 19.9783C36.116 19.4565 36.5725 19 37.0943 19H40.3551C40.8769 19 41.3334 19.4565 41.3334 19.9783C41.3334 20.5 40.8769 20.9565 40.3551 20.9565Z" fill="#F74806"/>
</svg>
