<svg width="80" height="80" viewBox="0 0 80 80" fill="none" xmlns="http://www.w3.org/2000/svg">
<path d="M8.8001 41.2001C8.1601 41.2001 7.6001 40.6401 7.6001 40.0001V23.3601C7.6001 22.7201 8.1601 22.1601 8.8001 22.1601C9.4401 22.1601 10.0001 22.7201 10.0001 23.3601V40.0001C10.0001 40.6401 9.4401 41.2001 8.8001 41.2001ZM13.6001 41.2001C12.9601 41.2001 12.4001 40.6401 12.4001 40.0001V16.6401C12.4001 16.0001 12.9601 15.4401 13.6001 15.4401C14.2401 15.4401 14.8001 16.0001 14.8001 16.6401V40.0001C14.8001 40.6401 14.2401 41.2001 13.6001 41.2001ZM18.4001 41.2001C17.7601 41.2001 17.2001 40.6401 17.2001 40.0001V33.3601C17.2001 32.7201 17.7601 32.1601 18.4001 32.1601C19.0401 32.1601 19.6001 32.7201 19.6001 33.3601V40.0001C19.6001 40.6401 19.0401 41.2001 18.4001 41.2001ZM28.0001 52.8801C27.3601 52.8801 26.8001 52.3201 26.8001 51.6801V40.0001C26.8001 39.3601 27.3601 38.8001 28.0001 38.8001C28.6401 38.8001 29.2001 39.3601 29.2001 40.0001V51.6801C29.2001 52.3201 28.6401 52.8801 28.0001 52.8801ZM32.8001 64.5601C32.1601 64.5601 31.6001 64.0001 31.6001 63.3601V40.0001C31.6001 39.3601 32.1601 38.8001 32.8001 38.8001C33.4401 38.8001 34.0001 39.3601 34.0001 40.0001V63.3601C34.0001 64.0001 33.4401 64.5601 32.8001 64.5601ZM37.6001 49.5201C36.9601 49.5201 36.4001 48.9601 36.4001 48.3201V40.0001C36.4001 39.3601 36.9601 38.8001 37.6001 38.8001C38.2401 38.8001 38.8001 39.3601 38.8001 40.0001V48.3201C38.8001 48.9601 38.2401 49.5201 37.6001 49.5201ZM47.2001 41.2001C46.5601 41.2001 46.0001 40.6401 46.0001 40.0001V16.6401C46.0001 16.0001 46.5601 15.4401 47.2001 15.4401C47.8401 15.4401 48.4001 16.0001 48.4001 16.6401V40.0001C48.4001 40.6401 47.8401 41.2001 47.2001 41.2001ZM52.0001 41.2001C51.3601 41.2001 50.8001 40.6401 50.8001 40.0001V30.0001C50.8001 29.3601 51.3601 28.8001 52.0001 28.8001C52.6401 28.8001 53.2001 29.3601 53.2001 30.0001V40.0001C53.2001 40.6401 52.6401 41.2001 52.0001 41.2001ZM56.8001 41.2001C56.1601 41.2001 55.6001 40.6401 55.6001 40.0001V24.9601C55.6001 24.3201 56.1601 23.7601 56.8001 23.7601C57.4401 23.7601 58.0001 24.3201 58.0001 24.9601V40.0001C58.0001 40.6401 57.4401 41.2001 56.8001 41.2001ZM61.6001 41.2001C60.9601 41.2001 60.4001 40.6401 60.4001 40.0001V33.3601C60.4001 32.7201 60.9601 32.1601 61.6001 32.1601C62.2401 32.1601 62.8001 32.7201 62.8001 33.3601V40.0001C62.8001 40.6401 62.2401 41.2001 61.6001 41.2001ZM71.2001 44.5601C70.5601 44.5601 70.0001 44.0001 70.0001 43.3601V40.0001C70.0001 39.3601 70.5601 38.8001 71.2001 38.8001C71.8401 38.8001 72.4001 39.3601 72.4001 40.0001V43.3601C72.4001 44.0001 71.8401 44.5601 71.2001 44.5601Z" fill="#F74806"/>
<path d="M4.00005 41.2C4.66279 41.2 5.20005 40.6628 5.20005 40C5.20005 39.3373 4.66279 38.8 4.00005 38.8C3.33731 38.8 2.80005 39.3373 2.80005 40C2.80005 40.6628 3.33731 41.2 4.00005 41.2Z" fill="#F74806"/>
<path d="M23.2 41.2C23.8627 41.2 24.4 40.6628 24.4 40C24.4 39.3373 23.8627 38.8 23.2 38.8C22.5373 38.8 22 39.3373 22 40C22 40.6628 22.5373 41.2 23.2 41.2Z" fill="#F74806"/>
<path d="M42.4001 41.2C43.0628 41.2 43.6001 40.6628 43.6001 40C43.6001 39.3373 43.0628 38.8 42.4001 38.8C41.7373 38.8 41.2001 39.3373 41.2001 40C41.2001 40.6628 41.7373 41.2 42.4001 41.2Z" fill="#F74806"/>
<path d="M66.4001 41.2C67.0628 41.2 67.6001 40.6628 67.6001 40C67.6001 39.3373 67.0628 38.8 66.4001 38.8C65.7373 38.8 65.2001 39.3373 65.2001 40C65.2001 40.6628 65.7373 41.2 66.4001 41.2Z" fill="#F74806"/>
<path d="M76 41.2C76.6628 41.2 77.2 40.6628 77.2 40C77.2 39.3373 76.6628 38.8 76 38.8C75.3373 38.8 74.8 39.3373 74.8 40C74.8 40.6628 75.3373 41.2 76 41.2Z" fill="#F74806"/>
</svg>
