<svg width="80" height="80" viewBox="0 0 80 80" fill="none" xmlns="http://www.w3.org/2000/svg">
<path d="M4.03997 22.0001C3.39997 22.0001 2.83997 21.4401 2.83997 20.8001V20.0001C2.83997 19.3601 3.39997 18.8001 4.03997 18.8001C4.67997 18.8001 5.23997 19.3601 5.23997 20.0001V20.8001C5.23997 21.4401 4.67997 22.0001 4.03997 22.0001ZM8.83997 21.6001C8.51997 21.6001 8.19997 21.4401 7.95997 21.2801L7.79997 21.1201C7.71997 21.0401 7.71997 20.9601 7.71997 20.8801C7.71997 20.8001 7.63997 20.7201 7.63997 20.6401V20.1601C7.63997 20.0801 7.63997 20.0001 7.71997 19.9201C7.71997 19.8401 7.79997 19.7601 7.79997 19.6801C7.87997 19.6001 7.87997 19.5201 7.95997 19.5201C8.27997 19.2001 8.67997 19.1201 9.07997 19.2001C9.15997 19.2001 9.23997 19.2001 9.31997 19.2801C9.39997 19.2801 9.47997 19.3601 9.55997 19.3601C9.63997 19.3601 9.71997 19.4401 9.71997 19.5201L9.87997 19.6801C9.87997 19.7601 9.95997 19.8401 9.95997 19.9201C9.95997 20.0001 10.04 20.0801 10.04 20.1601V20.6401C10.04 20.7201 10.04 20.8001 9.95997 20.8801C9.95997 20.9601 9.87997 21.0401 9.87997 21.1201L9.71997 21.2801C9.47997 21.4401 9.15997 21.6001 8.83997 21.6001ZM13.64 27.2001C13 27.2001 12.44 26.6401 12.44 26.0001V14.8001C12.44 14.1601 13 13.6001 13.64 13.6001C14.28 13.6001 14.84 14.1601 14.84 14.8001V26.0001C14.84 26.6401 14.28 27.2001 13.64 27.2001ZM23.24 31.2001C22.6 31.2001 22.04 30.6401 22.04 30.0001V10.8001C22.04 10.1601 22.6 9.6001 23.24 9.6001C23.88 9.6001 24.44 10.1601 24.44 10.8001V30.0001C24.44 30.6401 23.88 31.2001 23.24 31.2001ZM18.44 35.2001C17.8 35.2001 17.24 34.6401 17.24 34.0001V6.8001C17.24 6.1601 17.8 5.6001 18.44 5.6001C19.08 5.6001 19.64 6.1601 19.64 6.8001V34.0001C19.64 34.6401 19.08 35.2001 18.44 35.2001ZM28.04 26.4001C27.4 26.4001 26.84 25.8401 26.84 25.2001V15.6001C26.84 14.9601 27.4 14.4001 28.04 14.4001C28.68 14.4001 29.24 14.9601 29.24 15.6001V25.2001C29.24 25.8401 28.68 26.4001 28.04 26.4001ZM32.84 23.6001C32.2 23.6001 31.64 23.0401 31.64 22.4001V18.4001C31.64 17.7601 32.2 17.2001 32.84 17.2001C33.48 17.2001 34.04 17.7601 34.04 18.4001V22.4001C34.04 23.0401 33.48 23.6001 32.84 23.6001ZM37.64 24.4001C37 24.4001 36.44 23.8401 36.44 23.2001V17.6001C36.44 16.9601 37 16.4001 37.64 16.4001C38.28 16.4001 38.84 16.9601 38.84 17.6001V23.2001C38.84 23.8401 38.28 24.4001 37.64 24.4001ZM42.44 25.6001C41.8 25.6001 41.24 25.0401 41.24 24.4001V16.4001C41.24 15.7601 41.8 15.2001 42.44 15.2001C43.08 15.2001 43.64 15.7601 43.64 16.4001V24.4001C43.64 25.0401 43.08 25.6001 42.44 25.6001ZM47.24 23.2001C46.6 23.2001 46.04 22.6401 46.04 22.0001V18.8001C46.04 18.1601 46.6 17.6001 47.24 17.6001C47.88 17.6001 48.44 18.1601 48.44 18.8001V22.0001C48.44 22.6401 47.88 23.2001 47.24 23.2001ZM52.04 22.8001C51.4 22.8001 50.84 22.2401 50.84 21.6001V19.2001C50.84 18.5601 51.4 18.0001 52.04 18.0001C52.68 18.0001 53.24 18.5601 53.24 19.2001V21.6001C53.24 22.2401 52.68 22.8001 52.04 22.8001ZM56.84 21.6001H56.6C56.52 21.6001 56.44 21.6001 56.36 21.5201C56.28 21.5201 56.2 21.4401 56.12 21.4401C56.04 21.3601 55.96 21.3601 55.96 21.2801L55.8 21.1201C55.8 21.0401 55.72 20.9601 55.72 20.8801C55.72 20.8001 55.64 20.7201 55.64 20.6401V20.4001C55.64 20.0801 55.8 19.7601 55.96 19.5201L56.12 19.3601C56.2 19.2801 56.28 19.2801 56.36 19.2801C56.44 19.2801 56.52 19.2001 56.6 19.2001H57.08C57.16 19.2001 57.24 19.2001 57.32 19.2801C57.4 19.2801 57.48 19.3601 57.56 19.3601C57.64 19.3601 57.72 19.4401 57.72 19.5201C57.96 19.7601 58.04 20.0801 58.04 20.4001V20.6401C58.04 20.7201 58.04 20.8001 57.96 20.8801C57.96 20.9601 57.88 21.0401 57.88 21.1201L57.72 21.2801L57.56 21.4401C57.48 21.4401 57.4 21.5201 57.32 21.5201C57.24 21.5201 57.16 21.6001 57.08 21.6001H56.84ZM61.64 22.0001C61 22.0001 60.44 21.4401 60.44 20.8001V20.0001C60.44 19.3601 61 18.8001 61.64 18.8001C62.28 18.8001 62.84 19.3601 62.84 20.0001V20.8001C62.84 21.4401 62.28 22.0001 61.64 22.0001ZM71.24 22.0001C70.6 22.0001 70.04 21.4401 70.04 20.8001V20.0001C70.04 19.3601 70.6 18.8001 71.24 18.8001C71.88 18.8001 72.44 19.3601 72.44 20.0001V20.8001C72.44 21.4401 71.88 22.0001 71.24 22.0001ZM66.44 21.6001C66.12 21.6001 65.8 21.4401 65.56 21.2801L65.4 21.1201C65.4 21.0401 65.32 20.9601 65.32 20.8801C65.32 20.8001 65.24 20.7201 65.24 20.6401V20.4001C65.24 20.0801 65.4 19.7601 65.56 19.5201C65.64 19.4401 65.72 19.4401 65.72 19.3601C65.8 19.2801 65.88 19.2801 65.96 19.2801C66.04 19.2801 66.12 19.2001 66.2 19.2001H66.68C66.76 19.2001 66.84 19.2001 66.92 19.2801C67 19.2801 67.08 19.3601 67.16 19.3601C67.24 19.3601 67.32 19.4401 67.32 19.5201C67.56 19.7601 67.64 20.0801 67.64 20.4001V20.6401C67.64 20.7201 67.64 20.8001 67.56 20.8801C67.56 20.9601 67.48 21.0401 67.48 21.1201L67.32 21.2801L67.16 21.4401C67.08 21.4401 67 21.5201 66.92 21.5201C66.84 21.5201 66.76 21.6001 66.68 21.6001H66.44ZM76.04 21.6001C75.72 21.6001 75.4 21.4401 75.16 21.2801L75 21.1201C75 21.0401 74.92 20.9601 74.92 20.9601C74.92 20.8801 74.84 20.8001 74.84 20.7201V20.4801C74.84 20.1601 75 19.8401 75.16 19.6001C75.64 19.1201 76.44 19.1201 76.84 19.6001C77.08 19.8401 77.16 20.1601 77.16 20.4801V20.7201C77.16 20.8001 77.16 20.8801 77.08 20.9601C77.08 21.0401 77 21.1201 77 21.1201C76.92 21.2001 76.92 21.2801 76.84 21.2801C76.68 21.4401 76.36 21.6001 76.04 21.6001ZM4.03997 62.0001C3.39997 62.0001 2.83997 61.4401 2.83997 60.8001V60.0001C2.83997 59.3601 3.39997 58.8001 4.03997 58.8001C4.67997 58.8001 5.23997 59.3601 5.23997 60.0001V60.8001C5.23997 61.4401 4.67997 62.0001 4.03997 62.0001ZM8.83997 61.6001C8.67997 61.6001 8.51997 61.6001 8.35997 61.5201C8.19997 61.4401 8.03997 61.3601 7.95997 61.2801C7.71997 61.0401 7.63997 60.7201 7.63997 60.4001V60.1601C7.63997 60.0801 7.63997 60.0001 7.71997 59.9201C7.71997 59.8401 7.79997 59.7601 7.79997 59.6801C7.87997 59.6001 7.87997 59.5201 7.95997 59.5201C8.43997 59.0401 9.23997 59.0401 9.63997 59.5201L9.79997 59.6801C9.79997 59.7601 9.87997 59.8401 9.87997 59.9201C9.87997 60.0001 9.95997 60.0801 9.95997 60.1601V60.4001C9.95997 60.7201 9.79997 61.0401 9.63997 61.2801C9.55997 61.3601 9.39997 61.4401 9.23997 61.5201C9.15997 61.6001 8.99997 61.6001 8.83997 61.6001ZM13.64 68.8001C13 68.8001 12.44 68.2401 12.44 67.6001V53.2001C12.44 52.5601 13 52.0001 13.64 52.0001C14.28 52.0001 14.84 52.5601 14.84 53.2001V67.6001C14.84 68.2401 14.28 68.8001 13.64 68.8001ZM23.24 70.4001C22.6 70.4001 22.04 69.8401 22.04 69.2001V51.6001C22.04 50.9601 22.6 50.4001 23.24 50.4001C23.88 50.4001 24.44 50.9601 24.44 51.6001V69.2001C24.44 69.8401 23.88 70.4001 23.24 70.4001ZM18.44 74.4001C17.8 74.4001 17.24 73.8401 17.24 73.2001V47.6001C17.24 46.9601 17.8 46.4001 18.44 46.4001C19.08 46.4001 19.64 46.9601 19.64 47.6001V73.2001C19.64 73.8401 19.08 74.4001 18.44 74.4001ZM28.04 66.4001C27.4 66.4001 26.84 65.8401 26.84 65.2001V55.6001C26.84 54.9601 27.4 54.4001 28.04 54.4001C28.68 54.4001 29.24 54.9601 29.24 55.6001V65.2001C29.24 65.8401 28.68 66.4001 28.04 66.4001ZM32.84 63.6001C32.2 63.6001 31.64 63.0401 31.64 62.4001V58.4001C31.64 57.7601 32.2 57.2001 32.84 57.2001C33.48 57.2001 34.04 57.7601 34.04 58.4001V62.4001C34.04 63.0401 33.48 63.6001 32.84 63.6001ZM37.64 63.6001C37 63.6001 36.44 63.0401 36.44 62.4001V58.4001C36.44 57.7601 37 57.2001 37.64 57.2001C38.28 57.2001 38.84 57.7601 38.84 58.4001V62.4001C38.84 63.0401 38.28 63.6001 37.64 63.6001ZM42.44 64.8001C41.8 64.8001 41.24 64.2401 41.24 63.6001V57.2001C41.24 56.5601 41.8 56.0001 42.44 56.0001C43.08 56.0001 43.64 56.5601 43.64 57.2001V63.6001C43.64 64.2401 43.08 64.8001 42.44 64.8001ZM47.24 63.2001C46.6 63.2001 46.04 62.6401 46.04 62.0001V58.8001C46.04 58.1601 46.6 57.6001 47.24 57.6001C47.88 57.6001 48.44 58.1601 48.44 58.8001V62.0001C48.44 62.6401 47.88 63.2001 47.24 63.2001ZM52.04 62.8001C51.4 62.8001 50.84 62.2401 50.84 61.6001V59.2001C50.84 58.5601 51.4 58.0001 52.04 58.0001C52.68 58.0001 53.24 58.5601 53.24 59.2001V61.6001C53.24 62.2401 52.68 62.8001 52.04 62.8001ZM56.84 61.6001C56.68 61.6001 56.52 61.6001 56.36 61.5201C56.2 61.4401 56.12 61.3601 55.96 61.2801C55.72 61.0401 55.64 60.7201 55.64 60.4001V60.1601C55.64 60.0801 55.64 60.0001 55.72 59.9201C55.72 59.8401 55.8 59.7601 55.8 59.6801C55.88 59.6001 55.88 59.5201 55.96 59.5201C56.28 59.2001 56.68 59.1201 57.08 59.2001C57.16 59.2001 57.24 59.2001 57.32 59.2801C57.4 59.2801 57.48 59.3601 57.56 59.3601C57.64 59.4401 57.72 59.4401 57.72 59.5201L57.88 59.6801C57.88 59.7601 57.96 59.8401 57.96 59.9201C57.96 60.0001 58.04 60.0801 58.04 60.1601V60.4001C58.04 60.7201 57.88 61.0401 57.72 61.2801C57.64 61.3601 57.48 61.4401 57.32 61.5201C57.16 61.6001 57 61.6001 56.84 61.6001ZM61.64 62.0001C61 62.0001 60.44 61.4401 60.44 60.8001V60.0001C60.44 59.3601 61 58.8001 61.64 58.8001C62.28 58.8001 62.84 59.3601 62.84 60.0001V60.8001C62.84 61.4401 62.28 62.0001 61.64 62.0001ZM71.24 62.0001C70.6 62.0001 70.04 61.4401 70.04 60.8001V60.0001C70.04 59.3601 70.6 58.8001 71.24 58.8001C71.88 58.8001 72.44 59.3601 72.44 60.0001V60.8001C72.44 61.4401 71.88 62.0001 71.24 62.0001ZM66.44 61.6001C66.12 61.6001 65.8 61.4401 65.56 61.2801C65.48 61.2001 65.4 61.0401 65.32 60.8801C65.24 60.7201 65.24 60.5601 65.24 60.4001V60.1601C65.24 60.0801 65.24 60.0001 65.32 59.9201C65.32 59.8401 65.4 59.7601 65.4 59.6801C65.48 59.6001 65.48 59.5201 65.56 59.5201L65.72 59.3601C65.8 59.3601 65.88 59.2801 65.96 59.2801C66.04 59.2801 66.12 59.2001 66.2 59.2001H66.68C66.76 59.2001 66.84 59.2001 66.92 59.2801C67 59.2801 67.08 59.3601 67.16 59.3601C67.24 59.4401 67.32 59.4401 67.32 59.5201C67.56 59.7601 67.64 60.0801 67.64 60.4001C67.64 60.7201 67.48 61.0401 67.32 61.2801C67.24 61.3601 67.08 61.4401 66.92 61.5201C66.76 61.6001 66.6 61.6001 66.44 61.6001ZM76.04 61.6001C75.72 61.6001 75.4 61.5201 75.16 61.2801C74.92 61.0401 74.84 60.7201 74.84 60.4001V60.1601C74.84 60.0801 74.84 60.0001 74.92 59.9201C74.92 59.8401 75 59.7601 75 59.6801C75.08 59.6001 75.08 59.5201 75.16 59.5201C75.64 59.0401 76.44 59.0401 76.84 59.5201L77 59.6801C77 59.7601 77.08 59.8401 77.08 59.9201C77.08 60.0001 77.16 60.0801 77.16 60.1601V60.4001C77.16 60.7201 77 61.0401 76.84 61.2801C76.68 61.4401 76.36 61.6001 76.04 61.6001Z" fill="#F74806"/>
</svg>
