<svg width="80" height="80" viewBox="0 0 80 80" fill="none" xmlns="http://www.w3.org/2000/svg">
<path d="M35.9563 72C34.3154 72 33.9051 70.9744 32.9479 42.1892C32.6744 33.369 32.3325 23.0446 31.8539 17.2328C31.5121 21.5404 31.2386 28.241 31.0334 34.0527C30.1446 57.2313 29.666 59.4193 27.7515 59.4193C25.6319 59.4193 25.2901 55.9322 24.6063 45.1292C24.4012 41.3687 24.0593 36.0355 23.5124 33.916C23.0337 35.4202 22.6919 38.5654 22.4184 40.6166C21.803 46.2916 21.3928 49.0949 19.4783 49.0949C17.8374 49.0949 17.1536 47.9325 16.7434 47.1804C16.3331 46.4283 16.0596 46.0864 15.3759 46.0864H12.0256C11.4786 46.0864 11 45.6078 11 45.0608C11 44.5139 11.4786 44.0352 12.0256 44.0352H15.4443C17.3587 44.0352 18.1108 45.266 18.5895 46.1548C18.9313 46.7018 19.0681 46.9753 19.2732 47.0437C19.7518 46.1548 20.162 42.7361 20.4355 40.4798C21.1193 34.4629 21.5979 31.3178 23.6491 31.3178C25.6319 31.3178 26.0422 34.6681 26.6575 45.1292C26.8627 48.6163 27.1361 53.4708 27.6148 56.0006C28.2985 51.8982 28.6404 41.7789 28.9139 34.0527C29.7343 12.8569 30.0762 11.1476 31.8539 11.1476C33.5633 11.1476 33.9735 12.3099 34.9991 42.1208C35.2726 50.2572 35.6145 59.8295 36.0247 65.4361C36.3666 60.8551 36.7084 53.9494 36.9136 47.9325C37.8708 25.0274 38.281 23.0446 40.0587 23.0446C41.8364 23.0446 42.2467 25.2325 42.9304 40.0012C43.2039 45.266 43.5458 52.7187 44.1612 55.7955C44.5714 53.6759 44.8449 49.3684 45.05 46.2916C45.6654 36.5825 46.0756 33.2322 48.1952 33.2322C50.4515 33.2322 50.725 36.9928 51.1353 42.1892C51.3404 44.8557 51.6139 49.2316 52.366 49.9154C53.0497 49.7786 53.3232 47.4539 53.5283 46.0864C53.8702 43.6934 54.2121 41.0268 56.4 41.0268C58.4512 41.0268 59.0666 42.5994 59.5452 43.6934C59.9554 44.719 60.1605 44.9241 60.5024 44.9241C61.3229 44.9241 61.5964 44.5822 62.075 44.0352C62.5536 43.4883 63.2374 42.6678 64.6048 42.6678C65.7672 42.6678 66.4509 43.078 66.9295 43.4199C67.3398 43.6934 67.75 43.9669 68.7072 43.9669H72.8097C73.3566 43.9669 73.8353 44.4455 73.8353 44.9925C73.8353 45.5395 73.3566 46.0181 72.8097 46.0181H68.7072C67.0663 46.0181 66.3142 45.4711 65.7672 45.1292C65.3569 44.8557 65.1518 44.719 64.6048 44.719C64.263 44.719 64.0578 44.8557 63.5792 45.4027C63.0322 46.0181 62.2118 46.9753 60.5024 46.9753C58.6563 46.9753 58.041 45.4711 57.6307 44.4455C57.1521 43.3515 57.0154 43.078 56.4 43.078C55.9898 43.3515 55.7163 45.3343 55.5795 46.3599C55.2377 48.8898 54.8274 51.9666 52.2976 51.9666C49.7678 51.9666 49.4259 47.7274 49.084 42.3259C48.9473 40.2747 48.6738 37.0611 48.2636 35.762C47.6482 37.6081 47.3063 42.8729 47.1012 46.4967C46.5542 55.7955 46.2124 59.0774 44.1612 59.0774C42.1783 59.0774 41.6997 56.2741 40.8792 40.2063C40.6741 36.2407 40.4006 31.2494 40.0587 28.0358C39.5801 32.6852 39.1699 41.3003 38.8964 48.0693C38.0759 70.2223 37.6657 72 35.9563 72Z" fill="#F74806"/>
</svg>
